<svg width="32" height="30" viewBox="0 0 32 30" fill="none" xmlns="http://www.w3.org/2000/svg">
<path d="M6.74226 0.583123L0.35792 11.5131C-0.075967 12.2613 0.419904 13.2047 1.25669 13.2047H4.47985V17.5636C4.47985 23.2563 8.84971 27.8756 14.2733 27.8756C14.9551 27.8756 15.327 26.9972 14.8621 26.4768L13.6845 25.1431C11.8249 23.0286 10.7712 20.2311 10.7712 17.3359V13.1721H13.9944C14.8002 13.1721 15.327 12.2288 14.8931 11.4806L8.53979 0.583123C8.1369 -0.13253 7.14516 -0.13253 6.74226 0.583123Z" fill="#FFC01C"/>
<path d="M17.1634 3.28309L18.3411 4.61681C20.2007 6.73124 21.2544 9.5288 21.2544 12.4239V16.5552H18.0002C17.1944 16.5552 16.6676 17.4986 17.1015 18.2468L23.4858 29.1767C23.8887 29.8924 24.8804 29.8924 25.2833 29.1767L31.6677 18.2142C32.1016 17.466 31.6057 16.5227 30.7689 16.5227H27.5457V12.1637C27.5457 6.471 23.1759 1.85178 17.7523 1.85178C17.0395 1.85178 16.6676 2.73009 17.1634 3.28309Z" fill="#6672FB"/>
</svg>
